<?xml version="1.0" encoding="iso-8859-1"?>
<!-- Uploaded to: SVG Repo, www.svgrepo.com, Generator: SVG Repo Mixer Tools -->
<svg fill="#fff" height="800px" width="800px" version="1.1" id="Layer_1" xmlns="http://www.w3.org/2000/svg" xmlns:xlink="http://www.w3.org/1999/xlink" 
	 viewBox="0 0 512 512" xml:space="preserve">
<g>
	<g>
		<g>
			<path d="M384,362.667c-11.776,0-21.333,9.557-21.333,21.333s9.557,21.333,21.333,21.333s21.333-9.557,21.333-21.333
				S395.776,362.667,384,362.667z"/>
			<path d="M459.874,320c-6.565,0-11.883-5.318-11.883-11.883c0-28.785-23.333-52.117-52.117-52.117H372.13
				c-28.784,0-52.139,23.332-52.139,52.117c0,6.573-5.305,11.883-11.861,11.883c-28.784,0-52.139,23.332-52.139,52.117v23.765
				c0,28.785,23.354,52.117,52.139,52.117c6.556,0,11.861,5.31,11.861,11.883c0,28.785,23.354,52.117,52.139,52.117h23.744
				c28.785,0,52.117-23.333,52.117-52.117c0-6.565,5.318-11.883,11.883-11.883c28.785,0,52.117-23.333,52.117-52.117v-23.765
				C511.991,343.333,488.659,320,459.874,320z M469.325,395.883c0,5.221-4.23,9.451-9.451,9.451
				c-30.129,0-54.549,24.421-54.549,54.549c0,5.221-4.23,9.451-9.451,9.451H372.13c-5.229,0-9.472-4.239-9.472-9.451
				c0-30.129-24.399-54.549-54.528-54.549c-5.229,0-9.472-4.239-9.472-9.451v-23.765c0-5.212,4.243-9.451,9.472-9.451
				c30.129,0,54.528-24.421,54.528-54.549c0-5.212,4.243-9.451,9.472-9.451h23.744c5.221,0,9.451,4.23,9.451,9.451
				c0,30.129,24.421,54.549,54.549,54.549c5.221,0,9.451,4.23,9.451,9.451V395.883z"/>
			<path d="M490.667,0H21.333C9.551,0,0,9.551,0,21.333v128v341.333C0,502.449,9.551,512,21.333,512H256
				c11.782,0,21.333-9.551,21.333-21.333s-9.551-21.333-21.333-21.333H42.667V170.667h426.667v106.667
				c0,11.782,9.551,21.333,21.333,21.333S512,289.115,512,277.333v-128v-128C512,9.551,502.449,0,490.667,0z M42.667,128V42.667
				h426.667V128H42.667z"/>
			<path d="M85.333,64C73.557,64,64,73.557,64,85.333s9.557,21.333,21.333,21.333s21.333-9.557,21.333-21.333S97.109,64,85.333,64z"
				/>
			<path d="M149.333,64C137.557,64,128,73.557,128,85.333s9.557,21.333,21.333,21.333s21.333-9.557,21.333-21.333
				S161.109,64,149.333,64z"/>
			<path d="M213.333,64C201.557,64,192,73.557,192,85.333s9.557,21.333,21.333,21.333s21.333-9.557,21.333-21.333
				S225.109,64,213.333,64z"/>
			<path d="M106.667,256h64c11.782,0,21.333-9.551,21.333-21.333c0-11.782-9.551-21.333-21.333-21.333h-64
				c-11.782,0-21.333,9.551-21.333,21.333C85.333,246.449,94.885,256,106.667,256z"/>
			<path d="M320,256c11.782,0,21.333-9.551,21.333-21.333c0-11.782-9.551-21.333-21.333-21.333h-64
				c-11.782,0-21.333,9.551-21.333,21.333c0,11.782,9.551,21.333,21.333,21.333H320z"/>
			<path d="M234.667,320c0-11.782-9.551-21.333-21.333-21.333H106.667c-11.782,0-21.333,9.551-21.333,21.333
				s9.551,21.333,21.333,21.333h106.667C225.115,341.333,234.667,331.782,234.667,320z"/>
			<path d="M106.667,384c-11.782,0-21.333,9.551-21.333,21.333c0,11.782,9.551,21.333,21.333,21.333h64
				c11.782,0,21.333-9.551,21.333-21.333c0-11.782-9.551-21.333-21.333-21.333H106.667z"/>
		</g>
	</g>
</g>
</svg>