<svg xmlns="http://www.w3.org/2000/svg" width="101" height="78" viewBox="0 0 101 78" fill="none">
<mask id="mask0_19_20" style="mask-type:luminance" maskUnits="userSpaceOnUse" x="0" y="0" width="101" height="78">
<path d="M0 0H101V78H0V0Z" fill="white"/>
</mask>
<g mask="url(#mask0_19_20)">
<path d="M21.3784 0H25.9318V3.47425H30.0981V0H34.6515V10.517H30.0981V6.99725H25.9318V10.517H21.3826L21.3784 0ZM40.6357 3.48725H36.6294V0H49.1997V3.48725H45.1892V10.517H40.6357V3.48725ZM51.1945 0H55.9415L58.862 3.69525L61.7784 0H66.5254V10.517H61.993V5.304L58.862 9.04475H58.7821L55.6469 5.30725V10.517H51.1945V0ZM68.7895 0H73.3471V7.04275H79.7438V10.5203H68.7895V0Z" fill="black"/>
<path fill-rule="evenodd" clip-rule="evenodd" d="M21.2353 71.734L12.625 15.3303H88.375L79.7605 71.7275L50.4579 78L21.2353 71.734ZM38.6451 40.859L37.8287 33.774H72.1056L72.9052 26.858H28.0443L30.4599 47.7783H61.5048L60.4653 56.7483L50.4748 58.8348H50.4663L40.4926 56.7548L39.8529 51.2395H30.8555L32.1096 62.101L50.4579 66.0335L68.8357 62.101L71.0745 42.718L71.2934 40.8623H38.6451V40.859Z" fill="black"/>
</g>
</svg>